<svg xmlns="http://www.w3.org/2000/svg" xmlns:xlink="http://www.w3.org/1999/xlink" width="716" height="1024" version="1.1" viewBox="0 0 716 1024"><title>404 Design Copy 3</title><desc>Created with Sketch.</desc><defs><radialGradient id="radialGradient-1" cx="53.938%" cy="95.016%" r="129.219%" fx="53.938%" fy="95.016%" gradientTransform="translate(0.539383,0.950161),scale(1.000000,0.573242),rotate(-88.843071),translate(-0.539383,-0.950161)"><stop offset="0%" stop-color="#0F114C"/><stop offset="5.225%" stop-color="#0F114C" stop-opacity=".776"/><stop offset="44.907%" stop-color="#464775"/><stop offset="100%" stop-color="#0F114C"/></radialGradient><linearGradient id="linearGradient-2" x1="100%" x2="-275.487%" y1="57.175%" y2="57.175%"><stop offset="0%" stop-color="#000" stop-opacity="0"/><stop offset="100%" stop-color="#000"/></linearGradient><radialGradient id="radialGradient-3" cx="52.819%" cy="42.068%" r="46.338%" fx="52.819%" fy="42.068%"><stop offset="0%" stop-color="#9AE7F8"/><stop offset="75.299%" stop-color="#A0DEEC"/><stop offset="100%" stop-color="#75CBDD" stop-opacity="0"/></radialGradient><polyline id="path-4" points="0 .972 934.028 .972 934.028 935 0 935"/><linearGradient id="linearGradient-6" x1="42.502%" x2="55.705%" y1="0%" y2="28.566%"><stop offset="0%" stop-color="#DDFBFF"/><stop offset="100%" stop-color="#92E6F6"/></linearGradient><linearGradient id="linearGradient-7" x1="41.645%" x2="61.601%" y1="11.711%" y2="28.989%"><stop offset="0%" stop-color="#40B8A5"/><stop offset="100%" stop-color="#1E826C"/></linearGradient><linearGradient id="linearGradient-8" x1="41.07%" x2="45.315%" y1="0%" y2="1.134%"><stop offset="0%" stop-color="#40B8A5"/><stop offset="100%" stop-color="#1E826C"/></linearGradient><linearGradient id="linearGradient-9" x1="100%" x2="50%" y1="91.383%" y2="97.367%"><stop offset="0%" stop-color="#FF7562"/><stop offset="100%" stop-color="#FF4133"/></linearGradient><linearGradient id="linearGradient-10" x1="93.779%" x2="31.463%" y1="43.06%" y2="71.926%"><stop offset="0%" stop-color="#E4E9ED"/><stop offset="100%" stop-color="#C5CFD6"/></linearGradient></defs><g id="404-Design-Copy-3" fill="none" fill-rule="evenodd" stroke="none" stroke-width="1"><rect id="Rectangle-Copy-2" width="587" height="1024" x="129" y="0" fill="url(#radialGradient-1)"/><g id="Stars" fill="#FFF" transform="translate(0.000000, -82.000000)"><g id="Starts-Bottom-Half" opacity=".17" transform="translate(340.500000, 786.214345) scale(-1, 1) rotate(-81.000000) translate(-340.500000, -786.214345) translate(68.000000, 485.214345)"><g id="Group" transform="translate(111.000000, 324.000000)"><ellipse id="Oval" cx="130.515" cy="49.322" opacity=".188" rx="1.625" ry="1.626"/><ellipse id="Oval-Copy-4" cx="74.735" cy="119.24" rx="1.625" ry="1.626"/><ellipse id="Oval-Copy-5" cx="38.992" cy="29.81" rx="1.625" ry="1.626"/><ellipse id="Oval-Copy-6" cx="171.131" cy="146.882" rx="1.625" ry="1.626"/><ellipse id="Oval-Copy-22" cx="2.708" cy="252.572" opacity=".188" rx="2.708" ry="2.71"/><ellipse id="Oval-Copy-23" cx="199.292" cy="247.152" opacity=".188" rx="2.708" ry="2.71"/><ellipse id="Oval-Copy-11" cx="19.496" cy="153.928" opacity=".188" rx="1.625" ry="1.626"/><ellipse id="Oval-Copy-12" cx="169.507" cy="213.006" rx="1.625" ry="1.626"/><ellipse id="Oval-Copy-7" cx="40.346" cy="217.613" rx="2.979" ry="2.981"/><ellipse id="Oval-Copy-19" cx="114.539" cy="267.477" rx="3.52" ry="3.523"/><ellipse id="Oval-Copy-13" cx="90.71" cy="175.879" opacity=".188" rx="1" ry="1"/><ellipse id="Oval-Copy-14" cx="126.453" cy="96.747" rx="1" ry="1"/><ellipse id="Oval-Copy-15" cx="6.769" cy="88.617" rx="1" ry="1"/><ellipse id="Oval-Copy-16" cx="161.654" cy="18.157" rx="1" ry="1"/><ellipse id="Oval-Copy-17" cx="181.692" cy="227.911" rx="1" ry="1"/><ellipse id="Oval-Copy-20" cx="49.552" cy="268.019" rx="1" ry="1"/><ellipse id="Oval-Copy-21" cx="181.15" cy="263.141" rx="1" ry="1"/><ellipse id="Oval-Copy-18" cx="7.853" cy="11.653" opacity=".188" rx="1" ry="1"/><ellipse id="Oval-Copy-8" cx="182.504" cy="28.184" rx="1.625" ry="1.626"/><ellipse id="Oval-Copy-9" cx="95.314" cy="1.626" rx="1.625" ry="1.626"/><ellipse id="Oval-Copy-10" cx="172.756" cy="86.178" rx="1.625" ry="1.626"/></g><g id="Group-Copy-2" transform="translate(399.479850, 172.825433) rotate(-22.000000) translate(-399.479850, -172.825433) translate(297.979850, 37.325433)"><ellipse id="Oval" cx="130.611" cy="49.301" opacity=".188" rx="1.626" ry="1.625"/><ellipse id="Oval-Copy-4" cx="74.79" cy="119.19" rx="1.626" ry="1.625"/><ellipse id="Oval-Copy-5" cx="39.021" cy="29.797" rx="1.626" ry="1.625"/><ellipse id="Oval-Copy-6" cx="171.258" cy="146.82" rx="1.626" ry="1.625"/><ellipse id="Oval-Copy-22" cx="2.71" cy="252.466" opacity=".188" rx="2.71" ry="2.709"/><ellipse id="Oval-Copy-23" cx="199.439" cy="247.048" opacity=".188" rx="2.71" ry="2.709"/><ellipse id="Oval-Copy-11" cx="19.51" cy="153.863" opacity=".188" rx="1.626" ry="1.625"/><ellipse id="Oval-Copy-12" cx="169.632" cy="212.917" rx="1.626" ry="1.625"/><ellipse id="Oval-Copy-7" cx="40.376" cy="217.522" rx="2.981" ry="2.98"/><ellipse id="Oval-Copy-19" cx="114.623" cy="267.365" rx="3.523" ry="3.522"/><ellipse id="Oval-Copy-13" cx="90.777" cy="175.805" opacity=".188" rx="1" ry="1"/><ellipse id="Oval-Copy-14" cx="126.546" cy="96.706" rx="1" ry="1"/><ellipse id="Oval-Copy-15" cx="6.774" cy="88.58" rx="1" ry="1"/><ellipse id="Oval-Copy-16" cx="161.773" cy="18.149" rx="1" ry="1"/><ellipse id="Oval-Copy-17" cx="181.826" cy="227.815" rx="1" ry="1"/><ellipse id="Oval-Copy-20" cx="49.589" cy="267.907" rx="1" ry="1"/><ellipse id="Oval-Copy-21" cx="181.284" cy="263.031" rx="1" ry="1"/><ellipse id="Oval-Copy-18" cx="7.858" cy="11.648" opacity=".188" rx="1" ry="1"/><ellipse id="Oval-Copy-8" cx="182.639" cy="28.172" rx="1.626" ry="1.625"/><ellipse id="Oval-Copy-9" cx="95.384" cy="1.625" rx="1.626" ry="1.625"/><ellipse id="Oval-Copy-10" cx="172.884" cy="86.142" rx="1.626" ry="1.625"/></g><g id="Group-Copy" transform="translate(295.000000, 325.000000)"><ellipse id="Oval" cx="135.471" cy="49.247" opacity=".188" rx="1.626" ry="1.624"/><ellipse id="Oval-Copy-4" cx="79.657" cy="135.294" rx="1.626" ry="1.624"/><ellipse id="Oval-Copy-5" cx="43.893" cy="46" rx="1.626" ry="1.624"/><ellipse id="Oval-Copy-6" cx="176.113" cy="162.894" rx="1.626" ry="1.624"/><ellipse id="Oval-Copy-22" cx="7.586" cy="268.424" opacity=".188" rx="2.709" ry="2.706"/><ellipse id="Oval-Copy-23" cx="204.291" cy="263.012" opacity=".188" rx="2.709" ry="2.706"/><ellipse id="Oval-Copy-11" cx="13.547" cy="159.106" opacity=".188" rx="1.626" ry="1.624"/><ellipse id="Oval-Copy-12" cx="163.649" cy="218.094" rx="1.626" ry="1.624"/><ellipse id="Oval-Copy-7" cx="34.41" cy="222.694" rx="2.98" ry="2.976"/><ellipse id="Oval-Copy-19" cx="108.648" cy="272.482" rx="3.522" ry="3.518"/><ellipse id="Oval-Copy-13" cx="84.805" cy="164.788" opacity=".188" rx="1" ry="1"/><ellipse id="Oval-Copy-14" cx="120.569" cy="85.776" rx="1" ry="1"/><ellipse id="Oval-Copy-15" cx=".813" cy="77.659" rx="1" ry="1"/><ellipse id="Oval-Copy-16" cx="155.792" cy="7.306" rx="1" ry="1"/><ellipse id="Oval-Copy-17" cx="175.842" cy="216.741" rx="1" ry="1"/><ellipse id="Oval-Copy-20" cx="43.622" cy="256.788" rx="1" ry="1"/><ellipse id="Oval-Copy-21" cx="175.3" cy="251.918" rx="1" ry="1"/><ellipse id="Oval-Copy-18" cx="12.734" cy="11.635" opacity=".188" rx="1" ry="1"/><ellipse id="Oval-Copy-8" cx="187.492" cy="28.141" rx="1.626" ry="1.624"/><ellipse id="Oval-Copy-9" cx="100.249" cy="1.624" rx="1.626" ry="1.624"/><ellipse id="Oval-Copy-10" cx="177.738" cy="86.047" rx="1.626" ry="1.624"/></g><g id="Group-Copy-3" transform="translate(132.091663, 153.877425) rotate(-22.000000) translate(-132.091663, -153.877425) translate(42.591663, 24.877425)"><ellipse id="Oval" cx="124.611" cy="49.301" opacity=".188" rx="1.626" ry="1.625"/><ellipse id="Oval-Copy-4" cx="68.79" cy="135.443" rx="1.626" ry="1.625"/><ellipse id="Oval-Copy-14" cx="121.184" cy="113.879" rx="1" ry="1"/><ellipse id="Oval-Copy-15" cx="1.412" cy="105.752" rx="1" ry="1"/><ellipse id="Oval-Copy-16" cx="156.411" cy="35.322" rx="1" ry="1"/><ellipse id="Oval-Copy-17" cx="164.987" cy="216.98" rx="1" ry="1"/><ellipse id="Oval-Copy-20" cx="32.75" cy="257.071" rx="1" ry="1"/><ellipse id="Oval-Copy-21" cx="164.445" cy="252.195" rx="1" ry="1"/><ellipse id="Oval-Copy-18" cx="1.858" cy="11.648" opacity=".188" rx="1" ry="1"/><ellipse id="Oval-Copy-8" cx="176.639" cy="28.172" rx="1.626" ry="1.625"/><ellipse id="Oval-Copy-9" cx="89.384" cy="1.625" rx="1.626" ry="1.625"/><ellipse id="Oval-Copy-10" cx="166.884" cy="86.142" rx="1.626" ry="1.625"/></g></g><g id="Stars-top-half" opacity=".367" transform="translate(364.744445, 320.000000) rotate(-81.000000) translate(-364.744445, -320.000000) translate(89.744445, 11.000000)"><g id="Group" transform="translate(116.000000, 335.000000)"><ellipse id="Oval" cx="130.515" cy="49.322" opacity=".188" rx="1.625" ry="1.626"/><ellipse id="Oval-Copy-4" cx="74.735" cy="119.24" rx="1.625" ry="1.626"/><ellipse id="Oval-Copy-5" cx="38.992" cy="29.81" rx="1.625" ry="1.626"/><ellipse id="Oval-Copy-6" cx="171.131" cy="146.882" rx="1.625" ry="1.626"/><ellipse id="Oval-Copy-22" cx="2.708" cy="252.572" opacity=".188" rx="2.708" ry="2.71"/><ellipse id="Oval-Copy-23" cx="199.292" cy="247.152" opacity=".188" rx="2.708" ry="2.71"/><ellipse id="Oval-Copy-11" cx="19.496" cy="153.928" opacity=".188" rx="1.625" ry="1.626"/><ellipse id="Oval-Copy-12" cx="169.507" cy="213.006" rx="1.625" ry="1.626"/><ellipse id="Oval-Copy-7" cx="40.346" cy="217.613" rx="2.979" ry="2.981"/><ellipse id="Oval-Copy-19" cx="114.539" cy="267.477" rx="3.52" ry="3.523"/><ellipse id="Oval-Copy-13" cx="90.71" cy="175.879" opacity=".188" rx="1" ry="1"/><ellipse id="Oval-Copy-14" cx="126.453" cy="96.747" rx="1" ry="1"/><ellipse id="Oval-Copy-15" cx="6.769" cy="88.617" rx="1" ry="1"/><ellipse id="Oval-Copy-16" cx="161.654" cy="18.157" rx="1" ry="1"/><ellipse id="Oval-Copy-17" cx="181.692" cy="227.911" rx="1" ry="1"/><ellipse id="Oval-Copy-20" cx="49.552" cy="268.019" rx="1" ry="1"/><ellipse id="Oval-Copy-21" cx="181.15" cy="263.141" rx="1" ry="1"/><ellipse id="Oval-Copy-18" cx="7.853" cy="11.653" opacity=".188" rx="1" ry="1"/><ellipse id="Oval-Copy-8" cx="182.504" cy="28.184" rx="1.625" ry="1.626"/><ellipse id="Oval-Copy-9" cx="95.314" cy="1.626" rx="1.625" ry="1.626"/><ellipse id="Oval-Copy-10" cx="172.756" cy="86.178" rx="1.625" ry="1.626"/></g><g id="Group-Copy-2" transform="translate(404.479850, 183.825433) rotate(-22.000000) translate(-404.479850, -183.825433) translate(302.979850, 48.325433)"><ellipse id="Oval" cx="130.611" cy="49.301" opacity=".188" rx="1.626" ry="1.625"/><ellipse id="Oval-Copy-4" cx="74.79" cy="119.19" rx="1.626" ry="1.625"/><ellipse id="Oval-Copy-5" cx="39.021" cy="29.797" rx="1.626" ry="1.625"/><ellipse id="Oval-Copy-6" cx="171.258" cy="146.82" rx="1.626" ry="1.625"/><ellipse id="Oval-Copy-22" cx="2.71" cy="252.466" opacity=".188" rx="2.71" ry="2.709"/><ellipse id="Oval-Copy-11" cx="19.51" cy="153.863" opacity=".188" rx="1.626" ry="1.625"/><ellipse id="Oval-Copy-12" cx="169.632" cy="212.917" rx="1.626" ry="1.625"/><ellipse id="Oval-Copy-7" cx="40.376" cy="217.522" rx="2.981" ry="2.98"/><ellipse id="Oval-Copy-19" cx="114.623" cy="267.365" rx="3.523" ry="3.522"/><ellipse id="Oval-Copy-13" cx="90.777" cy="175.805" opacity=".188" rx="1" ry="1"/><ellipse id="Oval-Copy-14" cx="126.546" cy="96.706" rx="1" ry="1"/><ellipse id="Oval-Copy-15" cx="6.774" cy="88.58" rx="1" ry="1"/><ellipse id="Oval-Copy-16" cx="161.773" cy="18.149" rx="1" ry="1"/><ellipse id="Oval-Copy-20" cx="49.589" cy="267.907" rx="1" ry="1"/><ellipse id="Oval-Copy-18" cx="7.858" cy="11.648" opacity=".188" rx="1" ry="1"/><ellipse id="Oval-Copy-8" cx="182.639" cy="28.172" rx="1.626" ry="1.625"/><ellipse id="Oval-Copy-9" cx="95.384" cy="1.625" rx="1.626" ry="1.625"/><ellipse id="Oval-Copy-10" cx="172.884" cy="86.142" rx="1.626" ry="1.625"/></g><g id="Group-Copy" transform="translate(300.000000, 336.000000)"><ellipse id="Oval" cx="135.471" cy="49.247" opacity=".188" rx="1.626" ry="1.624"/><ellipse id="Oval-Copy-4" cx="79.657" cy="135.294" rx="1.626" ry="1.624"/><ellipse id="Oval-Copy-5" cx="43.893" cy="46" rx="1.626" ry="1.624"/><ellipse id="Oval-Copy-6" cx="176.113" cy="162.894" rx="1.626" ry="1.624"/><ellipse id="Oval-Copy-22" cx="7.586" cy="268.424" opacity=".188" rx="2.709" ry="2.706"/><ellipse id="Oval-Copy-23" cx="204.291" cy="263.012" opacity=".188" rx="2.709" ry="2.706"/><ellipse id="Oval-Copy-11" cx="13.547" cy="159.106" opacity=".188" rx="1.626" ry="1.624"/><ellipse id="Oval-Copy-12" cx="163.649" cy="218.094" rx="1.626" ry="1.624"/><ellipse id="Oval-Copy-7" cx="34.41" cy="222.694" rx="2.98" ry="2.976"/><ellipse id="Oval-Copy-19" cx="108.648" cy="272.482" rx="3.522" ry="3.518"/><ellipse id="Oval-Copy-13" cx="84.805" cy="164.788" opacity=".188" rx="1" ry="1"/><ellipse id="Oval-Copy-14" cx="120.569" cy="85.776" rx="1" ry="1"/><ellipse id="Oval-Copy-15" cx=".813" cy="77.659" rx="1" ry="1"/><ellipse id="Oval-Copy-16" cx="155.792" cy="7.306" rx="1" ry="1"/><ellipse id="Oval-Copy-17" cx="175.842" cy="216.741" rx="1" ry="1"/><ellipse id="Oval-Copy-20" cx="43.622" cy="256.788" rx="1" ry="1"/><ellipse id="Oval-Copy-21" cx="175.3" cy="251.918" rx="1" ry="1"/><ellipse id="Oval-Copy-18" cx="12.734" cy="11.635" opacity=".188" rx="1" ry="1"/><ellipse id="Oval-Copy-8" cx="187.492" cy="28.141" rx="1.626" ry="1.624"/><ellipse id="Oval-Copy-9" cx="100.249" cy="1.624" rx="1.626" ry="1.624"/><ellipse id="Oval-Copy-10" cx="177.738" cy="86.047" rx="1.626" ry="1.624"/></g><g id="Group-Copy-3" transform="translate(207.878636, 309.382458) rotate(-22.000000) translate(-207.878636, -309.382458) translate(100.878636, 19.882458)"><ellipse id="Oval" cx="130.611" cy="49.301" opacity=".188" rx="1.626" ry="1.625"/><ellipse id="Oval-Copy-4" cx="74.79" cy="135.443" rx="1.626" ry="1.625"/><ellipse id="Oval-Copy-5" cx="39.021" cy="46.051" rx="1.626" ry="1.625"/><ellipse id="Oval-Copy-6" cx="171.258" cy="163.074" rx="1.626" ry="1.625"/><ellipse id="Oval-Copy-22" cx="2.71" cy="268.719" opacity=".188" rx="2.71" ry="2.709"/><ellipse id="Oval-Copy-23" cx="210.916" cy="291.309" opacity=".188" rx="2.71" ry="2.709"/><ellipse id="Oval-Copy-11" cx="20.148" cy="187.289" opacity=".188" rx="1.626" ry="1.625"/><ellipse id="Oval-Copy-12" cx="170.269" cy="246.342" rx="1.626" ry="1.625"/><ellipse id="Oval-Copy-7" cx="41.013" cy="250.947" rx="2.981" ry="2.98"/><ellipse id="Oval-Copy-19" cx="70.58" cy="574.691" rx="3.523" ry="3.522"/><ellipse id="Oval-Copy-13" cx="91.415" cy="192.978" opacity=".188" rx="1" ry="1"/><ellipse id="Oval-Copy-14" cx="127.184" cy="113.879" rx="1" ry="1"/><ellipse id="Oval-Copy-15" cx="7.412" cy="105.752" rx="1" ry="1"/><ellipse id="Oval-Copy-16" cx="162.411" cy="35.322" rx="1" ry="1"/><ellipse id="Oval-Copy-17" cx="170.987" cy="216.98" rx="1" ry="1"/><ellipse id="Oval-Copy-20" cx="38.75" cy="257.071" rx="1" ry="1"/><ellipse id="Oval-Copy-21" cx="170.445" cy="252.195" rx="1" ry="1"/><ellipse id="Oval-Copy-18" cx="7.858" cy="11.648" opacity=".188" rx="1" ry="1"/><ellipse id="Oval-Copy-8" cx="182.639" cy="28.172" rx="1.626" ry="1.625"/><ellipse id="Oval-Copy-9" cx="95.384" cy="1.625" rx="1.626" ry="1.625"/><ellipse id="Oval-Copy-10" cx="172.884" cy="86.142" rx="1.626" ry="1.625"/></g></g></g><rect id="Inward-shadow" width="81" height="1024" x="129" y="0" fill="url(#linearGradient-2)" opacity=".667"/><g id="Planet" transform="translate(-82.000000, 540.000000)"><circle id="Atmos" cx="599.5" cy="599.5" r="599.5" fill="url(#radialGradient-3)" opacity=".263"/><circle id="Oval" cx="607" cy="577" r="470" fill="#3794AA"/><g id="planet" opacity=".6" transform="translate(137.000000, 105.000000)"><g id="bg" transform="translate(1.000000, 0.000000)"><mask id="mask-5" fill="#fff"><use xlink:href="#path-4"/></mask><path id="Fill-1" fill="url(#linearGradient-6)" d="M934.026631,467.98389 C934.026631,725.909787 724.940516,934.999627 467.01462,934.999627 C209.088723,934.999627 -0.00111752988,725.909787 -0.00111752988,467.98389 C-0.00111752988,210.057994 209.088723,0.971878486 467.01462,0.971878486 C724.940516,0.971878486 934.026631,210.057994 934.026631,467.98389" mask="url(#mask-5)"/></g><path id="Fill-4" fill="#1E826C" d="M363.211481,118.268866 C396.239163,78.6945291 490.446641,103.145177 538.922333,163.643661 C587.386826,224.145874 593.449554,323.976388 541.949964,342.127052 C490.446641,360.277716 451.065041,287.675061 411.68344,257.423955 C372.298107,227.172848 317.767153,172.720857 363.211481,118.268866"/><g id="land" fill="url(#linearGradient-7)" transform="translate(0.000000, 149.000000)"><path id="Fill-6" d="M323.934398,329.141348 C399.613258,295.908401 384.478978,190.178714 242.19735,141.838867 C167.380214,116.423685 134.433219,57.5894193 126.599355,0.0469461607 C48.3427802,83.4811125 0.410721576,195.587863 0.410721576,318.885185 C0.410721576,505.651591 110.357143,666.76456 269.160765,741.360929 C263.568878,697.600058 286.253511,656.75782 311.825482,631.238402 C357.232052,585.925147 375.395426,522.482122 299.716566,474.153444 C224.037706,425.813597 248.255538,362.374295 323.934398,329.141348"/></g><g id="land" fill="#129175" transform="translate(1.000000, 223.000000)"><path id="Fill-9" d="M212.417823,636.228024 C231.412671,585.364712 205.125857,523.681083 178.831598,495.63461 C140.465951,454.709464 114.886372,324.266379 153.255741,265.441368 C191.617665,206.616357 178.831598,132.444881 117.443586,96.6339832 C78.4488722,73.8915877 70.4310589,29.4936673 69.7610466,0.114661183 C25.7337967,71.3195754 0.291942274,155.22822 0.291942274,245.092321 C0.291942274,408.904567 84.7209314,552.967035 212.417823,636.228024"/></g><path id="Fill-12" fill="url(#linearGradient-8)" d="M588.649973,16 C580.019939,57.9927398 595.767336,117.695866 641.106606,163.166567 C713.488136,235.767597 822.062289,399.116186 704.441838,498.940738 C586.813954,598.769018 511.414514,716.747555 629.042398,789.344857 C672.092219,815.916029 715.536003,829.917336 753.334214,837 C863.242641,751.51225 934,617.799017 934,467.497439 C934,251.23017 787.52357,69.306363 588.649973,16"/><path id="Fill-14" fill="#0A6E58" d="M429.30746,156.710442 C405.914473,175.140356 465.02251,294.836154 505.83865,282.045771 C546.658502,269.259111 465.02251,128.576067 429.30746,156.710442"/></g></g><g id="Floating-Dude" transform="translate(279.000000, 81.000000)"><path id="Path" stroke="#FFF" stroke-width="5" d="M199.261984,188.628424 C227.389869,197.031691 248.629589,190.037539 262.981144,167.645967 C284.508476,134.05861 319.163376,123.686894 346.207695,142.394011 C373.252015,161.101129 416.610039,153.631299 442.844414,121.073786 C469.078789,88.5162723 524.262383,59.3315066 601.867851,91.9372127 C679.47332,124.542919 766.957695,112.619144 837.199883,67.5162723"/><g id="Humaaan" transform="translate(160.304634, 177.539748) rotate(-23.000000) translate(-160.304634, -177.539748) translate(47.804634, 33.039748)"><g id="Head" transform="translate(78.261629, 54.760783) scale(-1, 1) rotate(12.000000) translate(-78.261629, -54.760783) translate(60.761629, 26.760783)"><g fill="#B28B67"><path d="M5.7106893,23.8777801 C2.52581065,20.1332602 0.370218167,15.5442995 0.730418937,10.4022373 C1.76825765,-4.41347578 22.3585432,-1.15420767 26.3637801,6.32349202 C30.3690169,13.8011917 29.8930906,32.7689971 24.7166789,34.1054706 C22.652333,34.6384544 18.2546626,33.3328576 13.77886,30.6306734 L16.5882353,50.5384615 L0,50.5384615 L5.7106893,23.8777801 Z" transform="translate(3.323529, 5.461538)"/></g><path id="Hair" fill="#191847" d="M7.75959563,32.674437 C5.67760881,23.3967791 -0.253631802,17.0725107 0.652210915,12.9257944 C1.25610606,10.1613169 2.86566766,8.44218534 5.48089571,7.76839983 C6.83346689,2.28765444 11.1957865,-0.0435202 18.5678545,0.774875924 C29.6259565,2.00247011 36.3752064,6.60229449 33.4605389,16.7239155 C30.7812741,16.7239155 27.5468289,15.7533754 23.0742634,17.4162231 C21.6551364,17.943838 20.6401351,19.5800181 20.0292597,22.3247634 L18.008125,22.3247634 C16.0465286,19.0675011 14.1123821,17.8705462 12.2056853,18.7338984 C10.2989885,19.5972507 9.8655653,21.6943368 10.9054157,25.0251567 L9.90980255,32.674437 L7.75959563,32.674437 Z"/></g><g id="Bottom" transform="translate(117.000000, 206.500000) scale(-1, 1) translate(-117.000000, -206.500000) translate(9.000000, 124.000000)"><polygon id="Leg" fill="#E4E4E4" points="91.133 0 142.652 85.763 181.277 158.269 189.596 158.269 124.88 0"/><g id="Right-Shoe" fill="#E4E4E4" transform="translate(175.026667, 150.502092)"><path id="shoe" d="M0.927091751,5.06584226 C0.309030584,6.80679918 1.55187125e-16,8.13413445 0,9.04784806 C0,10.2927946 0.208287182,12.1094812 0.624861546,14.4979079 C2.07527228,14.4979079 15.1103578,14.4979079 39.730118,14.4979079 C40.746325,11.1526933 40.1597114,9.34671954 37.9702772,9.0799867 C35.780843,8.81325385 33.9620428,8.57241545 32.5138766,8.35747149 L14.6240324,0.416101291 C14.119247,0.192025117 13.528388,0.419584917 13.3043118,0.92437033 C13.3008971,0.932062755 13.2975796,0.939797982 13.2943602,0.947574161 L12.2464944,3.478597 C10.219651,4.42024103 8.57263026,4.89106304 7.30543226,4.89106304 C6.38403676,4.89106304 5.14846627,4.55945868 3.59872076,3.89624994 L3.59872426,3.89624178 C2.58323069,3.46166449 1.40771599,3.93259018 0.973138699,4.94808375 C0.956552454,4.98684147 0.941195799,5.02611393 0.927091751,5.06584226 Z"/></g><path id="Pant" fill="#DB2721" d="M170.549853,146.658689 L186.593625,141.826053 C179.564411,120.90211 170.949111,97.8760779 160.747726,72.7479566 C150.54634,47.6198354 139.590432,23.3705165 127.88,1.13686838e-13 L82.5665573,1.13686838e-13 C95.5860393,29.5626302 109.388436,56.4240746 123.973748,80.5843332 C138.559059,104.744592 154.084428,126.769377 170.549853,146.658689 Z"/><path id="Leg" fill="#E4E4E4" d="M87.7475287,0 C82.8850921,30.1378291 73.5067831,68.6423946 72.6217236,69.8306569 C72.031684,70.6228318 50.7901049,77.7103048 8.89698648,91.0930759 L10.6940724,98.3979489 C60.6515179,91.2206823 86.9748311,85.6522635 89.6640122,81.6926927 C93.6977839,75.7533364 113.83895,28.8322912 121.64,0 L87.7475287,0 Z"/><path id="Pant" fill="url(#linearGradient-9)" d="M23.6231254,84.778572 L26.7884965,96.5435982 C64.153755,99.8067882 87.0482742,97.4489284 95.472054,89.4700186 C103.895834,81.4911088 113.496456,51.6677693 124.273921,-1.13686838e-13 L81.0648478,-1.13686838e-13 C74.2364997,42.3089508 70.4190086,64.3514677 69.6123747,66.1275506 C68.8057408,67.9036335 53.4759911,74.1206406 23.6231254,84.778572 Z"/><g id="Left-Shoe" fill="#E4E4E4" transform="translate(11.439868, 107.116933) rotate(80.000000) translate(-11.439868, -107.116933) translate(-8.666798, 99.867979)"><path id="shoe" d="M0.927091751,5.06584226 C0.309030584,6.80679918 1.55187125e-16,8.13413445 0,9.04784806 C0,10.2927946 0.208287182,12.1094812 0.624861546,14.4979079 C2.07527228,14.4979079 15.1103578,14.4979079 39.730118,14.4979079 C40.746325,11.1526933 40.1597114,9.34671954 37.9702772,9.0799867 C35.780843,8.81325385 33.9620428,8.57241545 32.5138766,8.35747149 L14.6240324,0.416101291 C14.119247,0.192025117 13.528388,0.419584917 13.3043118,0.92437033 C13.3008971,0.932062755 13.2975796,0.939797982 13.2943602,0.947574161 L12.2464944,3.478597 C10.219651,4.42024103 8.57263026,4.89106304 7.30543226,4.89106304 C6.38403676,4.89106304 5.14846627,4.55945868 3.59872076,3.89624994 L3.59872426,3.89624178 C2.58323069,3.46166449 1.40771599,3.93259018 0.973138699,4.94808375 C0.956552454,4.98684147 0.941195799,5.02611393 0.927091751,5.06584226 Z"/></g></g><g id="Body" transform="translate(100.181782, 125.783047) scale(-1, 1) rotate(21.000000) translate(-100.181782, -125.783047) translate(17.681782, 63.283047)"><path id="Skin" fill="#FFF" d="M120.75,45.0539674 L148.048707,41.3387501 C153.509556,38.3081894 158.533272,36.2565528 163.119856,35.1838403 C164.410568,35.1462407 166.463843,35.6143845 163.405032,38.1586117 C160.346221,40.7028388 157.242627,43.5172853 157.787614,44.875095 C158.332602,46.2329046 161.177257,45.7277085 161.648504,47.8161351 C161.962668,49.2084195 157.345966,49.4346518 147.798397,48.4948321 L125.647835,57.2566845 L120.75,45.0539674 Z M34.9947389,51.3583378 L50.1347325,51.4150285 C33.5333186,88.6896865 24.8770839,108.206107 24.1660284,109.964289 C22.5661534,113.920199 25.951704,119.944981 27.3994999,123.182654 C22.6840771,125.287884 23.1865104,117.491357 17.2381314,120.252484 C11.808727,122.772712 7.67859249,127.339197 1.40570013,123.477401 C0.634484869,123.002615 -0.210641405,121.214963 1.83129052,119.818008 C6.91848759,116.337682 14.2494468,110.246485 15.2399748,108.241521 C16.5907367,105.507393 23.1756581,86.5463322 34.9947389,51.3583378 Z"/><path id="Clothes-Back" fill="#AFB9C5" d="M73.3776558,6.67725647 L85.2553382,6.42901098 C90.4604484,32.4269938 107.752745,47.6231226 142.729833,38.9063529 L150.39972,72.3013709 C117.623258,79.4762586 87.3916841,68.7778619 78.296633,33.446233 C75.9422115,24.2999905 73.879269,14.747664 73.3776558,6.67725647 Z" transform="translate(111.888688, 40.419390) rotate(5.000000) translate(-111.888688, -40.419390)"/><path id="Clothes" fill="url(#linearGradient-10)" d="M70.6166974,0.0109957349 L88.5772109,4.11508384 C88.5772109,34.9365282 98.4175954,54.6011187 103.464844,77.2620321 L54.9583077,77.2620321 C54.2750084,85.0923311 53.8554004,93.1404594 53.6367444,101.406417 L17.3167559,101.406417 C25.547069,57.7147126 42.9184754,23.9125736 69.430975,1.13686838e-13 L70.6072512,1.13686838e-13 L70.6166974,0.0109957349 Z"/><path id="Shade" fill="#000" fill-opacity=".1" d="M62.6113447,33.2911399 C61.3612892,52.4971562 62.0964826,67.1541202 64.816925,77.2620321 L54.9583077,77.2620321 C56.3119217,61.750232 58.7003524,47.0932703 62.6113426,33.2911472 Z"/></g></g></g><path id="Oval" fill="#FFF" d="M366,210 C379.807119,210 391,198.807119 391,185 C391,171.192881 379.807119,160 366,160 C352.192881,160 341,171.192881 341,185 C341,190.778086 357.970967,169.015625 366,180.215265 C370.341838,186.271664 357.970967,210 366,210 Z"/></g></svg>